<mxfile host="app.diagrams.net" agent="Mozilla/5.0 (Windows NT 10.0; Win64; x64) AppleWebKit/537.36 (KHTML, like Gecko) Chrome/131.0.0.0 Safari/537.36" version="25.0.1">
  <diagram name="Page-1" id="TqtHokQEVB3tETUanic4">
    <mxGraphModel dx="1016" dy="537" grid="1" gridSize="10" guides="1" tooltips="1" connect="1" arrows="1" fold="1" page="1" pageScale="1" pageWidth="850" pageHeight="1100" math="0" shadow="0">
      <root>
        <mxCell id="0" />
        <mxCell id="1" parent="0" />
        <mxCell id="fEvUa0qSfPMgFfPnClux-18" value="เริ่มต้น" style="whiteSpace=wrap;strokeWidth=2;" vertex="1" parent="1">
          <mxGeometry x="228" y="20" width="101" height="50" as="geometry" />
        </mxCell>
        <mxCell id="fEvUa0qSfPMgFfPnClux-19" value="รับค่าตัวเลขจากผู้ใช้" style="whiteSpace=wrap;strokeWidth=2;" vertex="1" parent="1">
          <mxGeometry x="182" y="120" width="193" height="49" as="geometry" />
        </mxCell>
        <mxCell id="fEvUa0qSfPMgFfPnClux-20" value="กำหนดอาร์เรย์ Roman และค่าตัวเลข" style="whiteSpace=wrap;strokeWidth=2;" vertex="1" parent="1">
          <mxGeometry x="176" y="218" width="206" height="66" as="geometry" />
        </mxCell>
        <mxCell id="fEvUa0qSfPMgFfPnClux-21" value="เริ่มลูปจาก 1000 ไปจนถึง 1" style="whiteSpace=wrap;strokeWidth=2;" vertex="1" parent="1">
          <mxGeometry x="159" y="335" width="239" height="50" as="geometry" />
        </mxCell>
        <mxCell id="fEvUa0qSfPMgFfPnClux-22" value="ตัวเลขปัจจุบันมากกว่าหรือเท่ากับค่าของ Roman ไหม?" style="rhombus;strokeWidth=2;whiteSpace=wrap;" vertex="1" parent="1">
          <mxGeometry x="20" y="457" width="260" height="260" as="geometry" />
        </mxCell>
        <mxCell id="fEvUa0qSfPMgFfPnClux-23" value="พิมพ์ Roman numeral และลบค่าจากตัวเลข" style="whiteSpace=wrap;strokeWidth=2;" vertex="1" parent="1">
          <mxGeometry x="46" y="791" width="208" height="66" as="geometry" />
        </mxCell>
        <mxCell id="fEvUa0qSfPMgFfPnClux-24" value="แสดงผล Roman numeral" style="whiteSpace=wrap;strokeWidth=2;" vertex="1" parent="1">
          <mxGeometry x="330" y="563" width="233" height="49" as="geometry" />
        </mxCell>
        <mxCell id="fEvUa0qSfPMgFfPnClux-25" value="สิ้นสุด" style="whiteSpace=wrap;strokeWidth=2;" vertex="1" parent="1">
          <mxGeometry x="397" y="799" width="99" height="50" as="geometry" />
        </mxCell>
        <mxCell id="fEvUa0qSfPMgFfPnClux-26" value="" style="curved=1;startArrow=none;endArrow=block;exitX=0.5;exitY=0.99;entryX=0.5;entryY=-0.01;rounded=0;" edge="1" parent="1" source="fEvUa0qSfPMgFfPnClux-18" target="fEvUa0qSfPMgFfPnClux-19">
          <mxGeometry relative="1" as="geometry">
            <Array as="points" />
          </mxGeometry>
        </mxCell>
        <mxCell id="fEvUa0qSfPMgFfPnClux-27" value="" style="curved=1;startArrow=none;endArrow=block;exitX=0.5;exitY=0.99;entryX=0.5;entryY=0.01;rounded=0;" edge="1" parent="1" source="fEvUa0qSfPMgFfPnClux-19" target="fEvUa0qSfPMgFfPnClux-20">
          <mxGeometry relative="1" as="geometry">
            <Array as="points" />
          </mxGeometry>
        </mxCell>
        <mxCell id="fEvUa0qSfPMgFfPnClux-28" value="" style="curved=1;startArrow=none;endArrow=block;exitX=0.5;exitY=1.01;entryX=0.5;entryY=0;rounded=0;" edge="1" parent="1" source="fEvUa0qSfPMgFfPnClux-20" target="fEvUa0qSfPMgFfPnClux-21">
          <mxGeometry relative="1" as="geometry">
            <Array as="points" />
          </mxGeometry>
        </mxCell>
        <mxCell id="fEvUa0qSfPMgFfPnClux-29" value="" style="curved=1;startArrow=none;endArrow=block;exitX=0.25;exitY=0.99;entryX=0.44;entryY=0;rounded=0;" edge="1" parent="1" source="fEvUa0qSfPMgFfPnClux-21" target="fEvUa0qSfPMgFfPnClux-22">
          <mxGeometry relative="1" as="geometry">
            <Array as="points">
              <mxPoint x="130" y="421" />
            </Array>
          </mxGeometry>
        </mxCell>
        <mxCell id="fEvUa0qSfPMgFfPnClux-30" value="ใช่" style="curved=1;startArrow=none;endArrow=block;exitX=0.45;exitY=1;entryX=0.47;entryY=-0.01;rounded=0;" edge="1" parent="1" source="fEvUa0qSfPMgFfPnClux-22" target="fEvUa0qSfPMgFfPnClux-23">
          <mxGeometry relative="1" as="geometry">
            <Array as="points">
              <mxPoint x="135" y="754" />
            </Array>
          </mxGeometry>
        </mxCell>
        <mxCell id="fEvUa0qSfPMgFfPnClux-31" value="" style="curved=1;startArrow=none;endArrow=block;exitX=0.82;exitY=-0.01;entryX=0.92;entryY=1;rounded=0;" edge="1" parent="1" source="fEvUa0qSfPMgFfPnClux-23" target="fEvUa0qSfPMgFfPnClux-22">
          <mxGeometry relative="1" as="geometry">
            <Array as="points">
              <mxPoint x="289" y="754" />
            </Array>
          </mxGeometry>
        </mxCell>
        <mxCell id="fEvUa0qSfPMgFfPnClux-32" value="ไม่ใช่" style="curved=1;startArrow=none;endArrow=block;exitX=0.89;exitY=0;entryX=0.5;entryY=0.99;rounded=0;" edge="1" parent="1" source="fEvUa0qSfPMgFfPnClux-22" target="fEvUa0qSfPMgFfPnClux-21">
          <mxGeometry relative="1" as="geometry">
            <Array as="points">
              <mxPoint x="279" y="421" />
            </Array>
          </mxGeometry>
        </mxCell>
        <mxCell id="fEvUa0qSfPMgFfPnClux-33" value="" style="curved=1;startArrow=none;endArrow=block;exitX=0.79;exitY=0.99;entryX=0.5;entryY=0;rounded=0;" edge="1" parent="1" source="fEvUa0qSfPMgFfPnClux-21" target="fEvUa0qSfPMgFfPnClux-24">
          <mxGeometry relative="1" as="geometry">
            <Array as="points">
              <mxPoint x="447" y="421" />
            </Array>
          </mxGeometry>
        </mxCell>
        <mxCell id="fEvUa0qSfPMgFfPnClux-34" value="" style="curved=1;startArrow=none;endArrow=block;exitX=0.5;exitY=1;entryX=0.5;entryY=-0.01;rounded=0;" edge="1" parent="1" source="fEvUa0qSfPMgFfPnClux-24" target="fEvUa0qSfPMgFfPnClux-25">
          <mxGeometry relative="1" as="geometry">
            <Array as="points" />
          </mxGeometry>
        </mxCell>
        <mxCell id="fEvUa0qSfPMgFfPnClux-37" value="" style="edgeStyle=orthogonalEdgeStyle;rounded=0;orthogonalLoop=1;jettySize=auto;html=1;" edge="1" parent="1" source="fEvUa0qSfPMgFfPnClux-35" target="fEvUa0qSfPMgFfPnClux-36">
          <mxGeometry relative="1" as="geometry" />
        </mxCell>
        <mxCell id="fEvUa0qSfPMgFfPnClux-35" value="start" style="strokeWidth=2;html=1;shape=mxgraph.flowchart.start_1;whiteSpace=wrap;" vertex="1" parent="1">
          <mxGeometry x="800" y="20" width="100" height="60" as="geometry" />
        </mxCell>
        <mxCell id="fEvUa0qSfPMgFfPnClux-39" value="" style="edgeStyle=orthogonalEdgeStyle;rounded=0;orthogonalLoop=1;jettySize=auto;html=1;" edge="1" parent="1" source="fEvUa0qSfPMgFfPnClux-36" target="fEvUa0qSfPMgFfPnClux-38">
          <mxGeometry relative="1" as="geometry" />
        </mxCell>
        <mxCell id="fEvUa0qSfPMgFfPnClux-36" value="กำหนดตัวแปร" style="whiteSpace=wrap;html=1;strokeWidth=2;" vertex="1" parent="1">
          <mxGeometry x="790" y="160" width="120" height="60" as="geometry" />
        </mxCell>
        <mxCell id="fEvUa0qSfPMgFfPnClux-41" value="" style="edgeStyle=orthogonalEdgeStyle;rounded=0;orthogonalLoop=1;jettySize=auto;html=1;" edge="1" parent="1" source="fEvUa0qSfPMgFfPnClux-38" target="fEvUa0qSfPMgFfPnClux-40">
          <mxGeometry relative="1" as="geometry" />
        </mxCell>
        <mxCell id="fEvUa0qSfPMgFfPnClux-38" value="รับค่าจากผู้ใช้" style="shape=parallelogram;perimeter=parallelogramPerimeter;whiteSpace=wrap;html=1;fixedSize=1;strokeWidth=2;" vertex="1" parent="1">
          <mxGeometry x="790" y="300" width="120" height="60" as="geometry" />
        </mxCell>
        <mxCell id="fEvUa0qSfPMgFfPnClux-77" value="" style="edgeStyle=orthogonalEdgeStyle;rounded=0;orthogonalLoop=1;jettySize=auto;html=1;" edge="1" parent="1" source="fEvUa0qSfPMgFfPnClux-40" target="fEvUa0qSfPMgFfPnClux-76">
          <mxGeometry relative="1" as="geometry" />
        </mxCell>
        <mxCell id="fEvUa0qSfPMgFfPnClux-40" value="กำหนดอาเรย์เลขโรมัน" style="whiteSpace=wrap;html=1;strokeWidth=2;" vertex="1" parent="1">
          <mxGeometry x="790" y="440" width="120" height="60" as="geometry" />
        </mxCell>
        <mxCell id="fEvUa0qSfPMgFfPnClux-44" value="" style="edgeStyle=orthogonalEdgeStyle;rounded=0;orthogonalLoop=1;jettySize=auto;html=1;" edge="1" parent="1" source="fEvUa0qSfPMgFfPnClux-45" target="fEvUa0qSfPMgFfPnClux-47">
          <mxGeometry relative="1" as="geometry" />
        </mxCell>
        <mxCell id="fEvUa0qSfPMgFfPnClux-45" value="&lt;font data-font-src=&quot;https://fonts.googleapis.com/css?family=Sarabun&quot; face=&quot;Sarabun&quot;&gt;Start&lt;/font&gt;" style="ellipse;whiteSpace=wrap;html=1;" vertex="1" parent="1">
          <mxGeometry x="1470" y="260" width="130" height="30" as="geometry" />
        </mxCell>
        <mxCell id="fEvUa0qSfPMgFfPnClux-46" value="" style="edgeStyle=orthogonalEdgeStyle;rounded=0;orthogonalLoop=1;jettySize=auto;html=1;" edge="1" parent="1" source="fEvUa0qSfPMgFfPnClux-47" target="fEvUa0qSfPMgFfPnClux-48">
          <mxGeometry relative="1" as="geometry" />
        </mxCell>
        <mxCell id="fEvUa0qSfPMgFfPnClux-47" value="กำหนดตัวแปร input" style="rounded=0;whiteSpace=wrap;html=1;" vertex="1" parent="1">
          <mxGeometry x="1470" y="330" width="130" height="40" as="geometry" />
        </mxCell>
        <mxCell id="fEvUa0qSfPMgFfPnClux-48" value="กรอกค่า input" style="shape=parallelogram;perimeter=parallelogramPerimeter;whiteSpace=wrap;html=1;fixedSize=1;" vertex="1" parent="1">
          <mxGeometry x="1470" y="400" width="130" height="40" as="geometry" />
        </mxCell>
        <mxCell id="fEvUa0qSfPMgFfPnClux-49" style="edgeStyle=orthogonalEdgeStyle;rounded=0;orthogonalLoop=1;jettySize=auto;html=1;entryX=0.5;entryY=0;entryDx=0;entryDy=0;" edge="1" parent="1" source="fEvUa0qSfPMgFfPnClux-50" target="fEvUa0qSfPMgFfPnClux-52">
          <mxGeometry relative="1" as="geometry" />
        </mxCell>
        <mxCell id="fEvUa0qSfPMgFfPnClux-50" value="&lt;font data-font-src=&quot;https://fonts.googleapis.com/css?family=Sarabun&quot; face=&quot;Sarabun&quot;&gt;Start&lt;/font&gt;" style="ellipse;whiteSpace=wrap;html=1;" vertex="1" parent="1">
          <mxGeometry x="1470" y="260" width="130" height="30" as="geometry" />
        </mxCell>
        <mxCell id="fEvUa0qSfPMgFfPnClux-51" value="" style="edgeStyle=orthogonalEdgeStyle;rounded=0;orthogonalLoop=1;jettySize=auto;html=1;" edge="1" parent="1" source="fEvUa0qSfPMgFfPnClux-52" target="fEvUa0qSfPMgFfPnClux-54">
          <mxGeometry relative="1" as="geometry" />
        </mxCell>
        <mxCell id="fEvUa0qSfPMgFfPnClux-52" value="กำหนดตัวแปร input" style="rounded=0;whiteSpace=wrap;html=1;" vertex="1" parent="1">
          <mxGeometry x="1470" y="330" width="130" height="40" as="geometry" />
        </mxCell>
        <mxCell id="fEvUa0qSfPMgFfPnClux-53" value="" style="edgeStyle=orthogonalEdgeStyle;rounded=0;orthogonalLoop=1;jettySize=auto;html=1;" edge="1" parent="1" source="fEvUa0qSfPMgFfPnClux-54">
          <mxGeometry relative="1" as="geometry">
            <mxPoint x="1534.9565217391305" y="470" as="targetPoint" />
          </mxGeometry>
        </mxCell>
        <mxCell id="fEvUa0qSfPMgFfPnClux-54" value="กำหนดตัวแปร&amp;nbsp;num&lt;div&gt;1000 , 900 , 500 , 400 , 100 , 90 , 50 , 40 , 10 , 9 , 5 , 4 , 1&amp;nbsp;&amp;nbsp;&lt;/div&gt;" style="rounded=0;whiteSpace=wrap;html=1;" vertex="1" parent="1">
          <mxGeometry x="1362.5" y="400" width="345" height="40" as="geometry" />
        </mxCell>
        <mxCell id="fEvUa0qSfPMgFfPnClux-55" value="กรอกค่า input" style="shape=parallelogram;perimeter=parallelogramPerimeter;whiteSpace=wrap;html=1;fixedSize=1;" vertex="1" parent="1">
          <mxGeometry x="1470" y="470" width="130" height="40" as="geometry" />
        </mxCell>
        <mxCell id="fEvUa0qSfPMgFfPnClux-56" value="" style="edgeStyle=orthogonalEdgeStyle;rounded=0;orthogonalLoop=1;jettySize=auto;html=1;" edge="1" parent="1" source="fEvUa0qSfPMgFfPnClux-57" target="fEvUa0qSfPMgFfPnClux-59">
          <mxGeometry relative="1" as="geometry" />
        </mxCell>
        <mxCell id="fEvUa0qSfPMgFfPnClux-57" value="&lt;div&gt;กำหนดตัวแปร&amp;nbsp;roman&amp;nbsp;&lt;span style=&quot;background-color: initial;&quot;&gt;&quot;M&quot; , &quot;CM&quot; , &quot;D&quot; , &quot;CD&quot; , &quot;C&quot; , &quot;XC&quot; , &quot;L&quot; , &quot;XL&quot; , &quot;X&quot; , &quot;IX&quot; , &quot;V&quot; , &quot;IV&quot; , &quot;I&quot;&lt;/span&gt;&lt;/div&gt;" style="rounded=0;whiteSpace=wrap;html=1;" vertex="1" parent="1">
          <mxGeometry x="1360" y="470" width="350" height="70" as="geometry" />
        </mxCell>
        <mxCell id="fEvUa0qSfPMgFfPnClux-58" value="" style="edgeStyle=orthogonalEdgeStyle;rounded=0;orthogonalLoop=1;jettySize=auto;html=1;" edge="1" parent="1" source="fEvUa0qSfPMgFfPnClux-59" target="fEvUa0qSfPMgFfPnClux-62">
          <mxGeometry relative="1" as="geometry" />
        </mxCell>
        <mxCell id="fEvUa0qSfPMgFfPnClux-59" value="กรอกค่า input" style="shape=parallelogram;perimeter=parallelogramPerimeter;whiteSpace=wrap;html=1;fixedSize=1;" vertex="1" parent="1">
          <mxGeometry x="1470" y="570" width="130" height="40" as="geometry" />
        </mxCell>
        <mxCell id="fEvUa0qSfPMgFfPnClux-60" value="" style="edgeStyle=orthogonalEdgeStyle;rounded=0;orthogonalLoop=1;jettySize=auto;html=1;" edge="1" parent="1" source="fEvUa0qSfPMgFfPnClux-62" target="fEvUa0qSfPMgFfPnClux-68">
          <mxGeometry relative="1" as="geometry" />
        </mxCell>
        <mxCell id="fEvUa0qSfPMgFfPnClux-61" style="edgeStyle=orthogonalEdgeStyle;rounded=0;orthogonalLoop=1;jettySize=auto;html=1;entryX=0.5;entryY=0;entryDx=0;entryDy=0;" edge="1" parent="1" source="fEvUa0qSfPMgFfPnClux-62" target="fEvUa0qSfPMgFfPnClux-74">
          <mxGeometry relative="1" as="geometry" />
        </mxCell>
        <mxCell id="fEvUa0qSfPMgFfPnClux-62" value="กำหนดเลขโรมัน&lt;div&gt;ครบหรือไม่&lt;/div&gt;" style="rhombus;whiteSpace=wrap;html=1;" vertex="1" parent="1">
          <mxGeometry x="1458.3400000000001" y="670" width="153.33" height="70" as="geometry" />
        </mxCell>
        <mxCell id="fEvUa0qSfPMgFfPnClux-63" value="" style="edgeStyle=orthogonalEdgeStyle;rounded=0;orthogonalLoop=1;jettySize=auto;html=1;" edge="1" parent="1" source="fEvUa0qSfPMgFfPnClux-65" target="fEvUa0qSfPMgFfPnClux-70">
          <mxGeometry relative="1" as="geometry" />
        </mxCell>
        <mxCell id="fEvUa0qSfPMgFfPnClux-64" value="" style="edgeStyle=orthogonalEdgeStyle;rounded=0;orthogonalLoop=1;jettySize=auto;html=1;" edge="1" parent="1" source="fEvUa0qSfPMgFfPnClux-65" target="fEvUa0qSfPMgFfPnClux-74">
          <mxGeometry relative="1" as="geometry" />
        </mxCell>
        <mxCell id="fEvUa0qSfPMgFfPnClux-65" value="ถ้าเลข input มากกว่าตัวแปร num ลบ input กับ num&amp;nbsp;" style="rhombus;whiteSpace=wrap;html=1;" vertex="1" parent="1">
          <mxGeometry x="1458.33" y="820" width="153.33" height="70" as="geometry" />
        </mxCell>
        <mxCell id="fEvUa0qSfPMgFfPnClux-66" value="F" style="text;html=1;align=center;verticalAlign=middle;resizable=0;points=[];autosize=1;strokeColor=none;fillColor=none;" vertex="1" parent="1">
          <mxGeometry x="1534" y="740" width="30" height="30" as="geometry" />
        </mxCell>
        <mxCell id="fEvUa0qSfPMgFfPnClux-67" value="" style="edgeStyle=orthogonalEdgeStyle;rounded=0;orthogonalLoop=1;jettySize=auto;html=1;" edge="1" parent="1" source="fEvUa0qSfPMgFfPnClux-68" target="fEvUa0qSfPMgFfPnClux-65">
          <mxGeometry relative="1" as="geometry" />
        </mxCell>
        <mxCell id="fEvUa0qSfPMgFfPnClux-68" value="" style="ellipse;whiteSpace=wrap;html=1;aspect=fixed;" vertex="1" parent="1">
          <mxGeometry x="1522.49" y="774" width="25" height="25" as="geometry" />
        </mxCell>
        <mxCell id="fEvUa0qSfPMgFfPnClux-69" style="edgeStyle=orthogonalEdgeStyle;rounded=0;orthogonalLoop=1;jettySize=auto;html=1;entryX=0;entryY=0.5;entryDx=0;entryDy=0;" edge="1" parent="1" source="fEvUa0qSfPMgFfPnClux-70" target="fEvUa0qSfPMgFfPnClux-68">
          <mxGeometry relative="1" as="geometry">
            <Array as="points">
              <mxPoint x="1535" y="1020" />
              <mxPoint x="1400" y="1020" />
              <mxPoint x="1400" y="787" />
            </Array>
          </mxGeometry>
        </mxCell>
        <mxCell id="fEvUa0qSfPMgFfPnClux-70" value="ปริ้นค่า roman&amp;nbsp;&amp;nbsp;" style="shape=parallelogram;perimeter=parallelogramPerimeter;whiteSpace=wrap;html=1;fixedSize=1;" vertex="1" parent="1">
          <mxGeometry x="1470.0099999999998" y="930" width="130" height="40" as="geometry" />
        </mxCell>
        <mxCell id="fEvUa0qSfPMgFfPnClux-71" value="T" style="text;html=1;align=center;verticalAlign=middle;resizable=0;points=[];autosize=1;strokeColor=none;fillColor=none;" vertex="1" parent="1">
          <mxGeometry x="1599.99" y="671" width="30" height="30" as="geometry" />
        </mxCell>
        <mxCell id="fEvUa0qSfPMgFfPnClux-72" value="&lt;font data-font-src=&quot;https://fonts.googleapis.com/css?family=Sarabun&quot; face=&quot;Sarabun&quot;&gt;End&lt;/font&gt;" style="ellipse;whiteSpace=wrap;html=1;" vertex="1" parent="1">
          <mxGeometry x="1469.99" y="1180" width="130" height="30" as="geometry" />
        </mxCell>
        <mxCell id="fEvUa0qSfPMgFfPnClux-73" style="edgeStyle=orthogonalEdgeStyle;rounded=0;orthogonalLoop=1;jettySize=auto;html=1;entryX=0.5;entryY=0;entryDx=0;entryDy=0;" edge="1" parent="1" source="fEvUa0qSfPMgFfPnClux-74" target="fEvUa0qSfPMgFfPnClux-72">
          <mxGeometry relative="1" as="geometry">
            <Array as="points">
              <mxPoint x="1743" y="1100" />
              <mxPoint x="1535" y="1100" />
            </Array>
          </mxGeometry>
        </mxCell>
        <mxCell id="fEvUa0qSfPMgFfPnClux-74" value="" style="ellipse;whiteSpace=wrap;html=1;aspect=fixed;" vertex="1" parent="1">
          <mxGeometry x="1730" y="842.5" width="25" height="25" as="geometry" />
        </mxCell>
        <mxCell id="fEvUa0qSfPMgFfPnClux-75" value="F" style="text;html=1;align=center;verticalAlign=middle;resizable=0;points=[];autosize=1;strokeColor=none;fillColor=none;" vertex="1" parent="1">
          <mxGeometry x="1605" y="812.5" width="30" height="30" as="geometry" />
        </mxCell>
        <mxCell id="fEvUa0qSfPMgFfPnClux-79" value="" style="edgeStyle=orthogonalEdgeStyle;rounded=0;orthogonalLoop=1;jettySize=auto;html=1;" edge="1" parent="1" source="fEvUa0qSfPMgFfPnClux-76" target="fEvUa0qSfPMgFfPnClux-78">
          <mxGeometry relative="1" as="geometry" />
        </mxCell>
        <mxCell id="fEvUa0qSfPMgFfPnClux-76" value="กำหนดอาเรย์ตัวเลข" style="whiteSpace=wrap;html=1;strokeWidth=2;" vertex="1" parent="1">
          <mxGeometry x="790" y="580" width="120" height="60" as="geometry" />
        </mxCell>
        <mxCell id="fEvUa0qSfPMgFfPnClux-81" value="" style="edgeStyle=orthogonalEdgeStyle;rounded=0;orthogonalLoop=1;jettySize=auto;html=1;" edge="1" parent="1" source="fEvUa0qSfPMgFfPnClux-78" target="fEvUa0qSfPMgFfPnClux-80">
          <mxGeometry relative="1" as="geometry" />
        </mxCell>
        <mxCell id="fEvUa0qSfPMgFfPnClux-87" style="edgeStyle=orthogonalEdgeStyle;rounded=0;orthogonalLoop=1;jettySize=auto;html=1;" edge="1" parent="1" source="fEvUa0qSfPMgFfPnClux-78">
          <mxGeometry relative="1" as="geometry">
            <mxPoint x="850" y="1510" as="targetPoint" />
            <Array as="points">
              <mxPoint x="1021" y="788" />
              <mxPoint x="1021" y="1430" />
              <mxPoint x="850" y="1430" />
            </Array>
          </mxGeometry>
        </mxCell>
        <mxCell id="fEvUa0qSfPMgFfPnClux-78" value="วนครบ13รอบแล้วหรือไหม&lt;div&gt;ตามตัวเลขโรมันที่กำหนด&lt;/div&gt;" style="rhombus;whiteSpace=wrap;html=1;strokeWidth=2;" vertex="1" parent="1">
          <mxGeometry x="745" y="707.5" width="210" height="160" as="geometry" />
        </mxCell>
        <mxCell id="fEvUa0qSfPMgFfPnClux-84" value="" style="edgeStyle=orthogonalEdgeStyle;rounded=0;orthogonalLoop=1;jettySize=auto;html=1;" edge="1" parent="1" source="fEvUa0qSfPMgFfPnClux-80" target="fEvUa0qSfPMgFfPnClux-83">
          <mxGeometry relative="1" as="geometry" />
        </mxCell>
        <mxCell id="fEvUa0qSfPMgFfPnClux-89" style="edgeStyle=orthogonalEdgeStyle;rounded=0;orthogonalLoop=1;jettySize=auto;html=1;" edge="1" parent="1" source="fEvUa0qSfPMgFfPnClux-80">
          <mxGeometry relative="1" as="geometry">
            <mxPoint x="1010" y="1027.5" as="targetPoint" />
          </mxGeometry>
        </mxCell>
        <mxCell id="fEvUa0qSfPMgFfPnClux-80" value="ตัวเลขปัจจุบันมากกว่าหรือเท่ากับค่าของ Roman ไหม?" style="rhombus;whiteSpace=wrap;html=1;strokeWidth=2;" vertex="1" parent="1">
          <mxGeometry x="745" y="947.5" width="210" height="160" as="geometry" />
        </mxCell>
        <mxCell id="fEvUa0qSfPMgFfPnClux-82" value="ไม่จริง" style="text;html=1;align=center;verticalAlign=middle;whiteSpace=wrap;rounded=0;" vertex="1" parent="1">
          <mxGeometry x="850" y="860" width="60" height="30" as="geometry" />
        </mxCell>
        <mxCell id="fEvUa0qSfPMgFfPnClux-85" style="edgeStyle=orthogonalEdgeStyle;rounded=0;orthogonalLoop=1;jettySize=auto;html=1;entryX=0;entryY=0.5;entryDx=0;entryDy=0;entryPerimeter=0;" edge="1" parent="1" source="fEvUa0qSfPMgFfPnClux-83" target="fEvUa0qSfPMgFfPnClux-86">
          <mxGeometry relative="1" as="geometry">
            <mxPoint x="820" y="670" as="targetPoint" />
            <Array as="points">
              <mxPoint x="850" y="1400" />
              <mxPoint x="660" y="1400" />
              <mxPoint x="660" y="670" />
            </Array>
          </mxGeometry>
        </mxCell>
        <mxCell id="fEvUa0qSfPMgFfPnClux-83" value="แสดงเลขโรมัน" style="shape=parallelogram;perimeter=parallelogramPerimeter;whiteSpace=wrap;html=1;fixedSize=1;strokeWidth=2;" vertex="1" parent="1">
          <mxGeometry x="750" y="1237.5" width="200" height="60" as="geometry" />
        </mxCell>
        <mxCell id="fEvUa0qSfPMgFfPnClux-86" value="" style="verticalLabelPosition=bottom;verticalAlign=top;html=1;shape=mxgraph.flowchart.on-page_reference;" vertex="1" parent="1">
          <mxGeometry x="840" y="660" width="20" height="20" as="geometry" />
        </mxCell>
        <mxCell id="fEvUa0qSfPMgFfPnClux-88" value="แสดงเลขโรมันทั้งหมด" style="shape=parallelogram;perimeter=parallelogramPerimeter;whiteSpace=wrap;html=1;fixedSize=1;strokeWidth=2;" vertex="1" parent="1">
          <mxGeometry x="755" y="1510" width="200" height="60" as="geometry" />
        </mxCell>
        <mxCell id="fEvUa0qSfPMgFfPnClux-90" value="" style="verticalLabelPosition=bottom;verticalAlign=top;html=1;shape=mxgraph.flowchart.on-page_reference;" vertex="1" parent="1">
          <mxGeometry x="1010" y="1017.5" width="20" height="20" as="geometry" />
        </mxCell>
        <mxCell id="fEvUa0qSfPMgFfPnClux-91" value="end" style="strokeWidth=2;html=1;shape=mxgraph.flowchart.start_1;whiteSpace=wrap;" vertex="1" parent="1">
          <mxGeometry x="810" y="1620" width="100" height="60" as="geometry" />
        </mxCell>
        <mxCell id="fEvUa0qSfPMgFfPnClux-92" style="edgeStyle=orthogonalEdgeStyle;rounded=0;orthogonalLoop=1;jettySize=auto;html=1;entryX=0.444;entryY=0.033;entryDx=0;entryDy=0;entryPerimeter=0;" edge="1" parent="1" source="fEvUa0qSfPMgFfPnClux-88" target="fEvUa0qSfPMgFfPnClux-91">
          <mxGeometry relative="1" as="geometry" />
        </mxCell>
      </root>
    </mxGraphModel>
  </diagram>
</mxfile>
